<svg xmlns="http://www.w3.org/2000/svg" viewBox="0 0 512 512">
  <defs>
    <style>
      .mask { fill: #FBB040; }
    </style>
  </defs>
  
  <g class="mask">
    <path d="M160 96c-44.2 0-80 35.8-80 80v64c0 44.2 35.8 80 80 80s80-35.8 80-80v-64c0-44.2-35.8-80-80-80zm0 32c26.5 0 48 21.5 48 48v64c0 26.5-21.5 48-48 48s-48-21.5-48-48v-64c0-26.5 21.5-48 48-48z"/>
    
    <circle cx="144" cy="192" r="12"/>
    <circle cx="176" cy="192" r="12"/>
    
    <path d="M160 224c-13.3 0-24 10.7-24 24h48c0-13.3-10.7-24-24-24z"/>
    
    <path d="M352 96c-44.2 0-80 35.8-80 80v64c0 44.2 35.8 80 80 80s80-35.8 80-80v-64c0-44.2-35.8-80-80-80zm0 32c26.5 0 48 21.5 48 48v64c0 26.5-21.5 48-48 48s-48-21.5-48-48v-64c0-26.5 21.5-48 48-48z"/>
    
    <circle cx="336" cy="192" r="12"/>
    <circle cx="368" cy="192" r="12"/>
    
    <path d="M352 240c13.3 0 24-10.7 24-24h-48c0 13.3 10.7 24 24 24z"/>
    
    <path d="M256 360c-88.4 0-160-28.7-160-64h-32c0 53 85.9 96 192 96s192-43 192-96h-32c0 35.3-71.6 64-160 64z"/>
  </g>
</svg>
